<svg width="450" height="459" viewBox="0 0 450 459" fill="none" xmlns="http://www.w3.org/2000/svg">
<g clip-path="url(#clip0_27_1646)">
<path d="M114.919 469.71L41.2577 470.996C41.9192 437.523 67.845 372.285 63.8578 330.006C59.8707 287.727 19.1537 254.952 19.1537 254.952C-13.5522 218.96 5.53845 174.255 5.53845 174.255C19.0985 149.494 19.907 131.131 19.907 131.131C29.4799 73.6498 102.094 78.4292 102.094 78.4292V78.5395C115.489 77.3446 173 75.1939 185.274 125.101C185.274 125.101 187.479 143.355 202.895 166.994C202.895 166.994 225.385 210.118 195.545 248.445C195.545 248.445 157.474 284.18 156.721 326.679C155.967 369.178 183.51 436.604 186.725 469.93H116.463" fill="#F8F5EA"/>
<path d="M158.484 231.717C154.058 236.047 150.851 241.468 149.187 247.434C145.714 258.867 132.65 264.731 105.549 264.731C78.4469 264.731 65.3829 258.867 61.9285 247.434C60.2538 241.469 57.0413 236.049 52.6129 231.717C44.3629 225.081 52.6129 221.607 52.6129 221.607C57.9414 217.361 61.9285 208.85 61.9285 208.85C71.7771 187.821 85.8149 190.21 85.8149 190.21C90.6105 190.744 105.494 192.619 105.494 192.619C105.494 192.619 120.395 190.78 125.172 190.21C125.172 190.21 139.283 187.821 149.059 208.85C149.059 208.85 153.046 217.361 158.356 221.607C158.484 221.552 166.734 225.081 158.484 231.717Z" fill="#F39200"/>
<path d="M61.798 163.743C62.1997 157.645 59.3321 152.49 55.3932 152.231C51.4543 151.971 47.9355 156.704 47.5339 162.803C47.1322 168.901 49.9997 174.055 53.9386 174.315C57.8776 174.575 61.3963 169.841 61.798 163.743Z" fill="#1D1D1B"/>
<path d="M170.824 168.622C171.252 162.51 168.398 157.332 164.451 157.055C160.503 156.779 156.956 161.509 156.529 167.621C156.101 173.732 158.955 178.911 162.902 179.187C166.85 179.464 170.396 174.733 170.824 168.622Z" fill="#1D1D1B"/>
<path d="M90.8733 209.293C92.8303 208.675 93.738 206.023 92.9008 203.371C92.0637 200.719 89.7985 199.07 87.8415 199.688C85.8845 200.307 84.9768 202.958 85.814 205.61C86.6511 208.262 88.9163 209.911 90.8733 209.293Z" fill="#F9B233"/>
<path d="M121.341 206.908C122.391 204.321 121.695 201.596 119.787 200.82C117.878 200.045 115.48 201.512 114.429 204.099C113.379 206.686 114.075 209.411 115.983 210.187C117.892 210.963 120.29 209.495 121.341 206.908Z" fill="#F9B233"/>
<path d="M150.694 211.791C150.694 211.791 155.195 219.144 158.043 221.239C160.891 223.335 165.595 225.375 158.043 232.14C158.043 232.14 151.135 238.813 149.353 246.846C147.57 254.879 140 260.117 127.304 262.856C127.304 262.856 100.68 267.599 77.6935 261.331C77.7487 261.423 142.278 265.099 150.694 211.791Z" fill="#F9B233"/>
<path d="M349.483 469.71L272.477 471.07C273.176 436.144 300.259 367.818 296.088 323.591C291.917 279.363 249.363 245.118 249.363 245.118C215.169 207.471 235.215 160.744 235.215 160.744C249.381 134.862 250.226 115.671 250.226 115.671C260.24 55.5619 336.162 60.525 336.162 60.525V60.6353C350.163 59.3854 410.283 57.1427 423.127 109.329C423.127 109.329 425.423 128.41 441.501 153.115C441.501 153.115 465.038 198.207 433.784 238.28C433.784 238.28 393.967 275.65 393.177 320.08C392.387 364.509 421.197 435.004 424.56 469.857H351.063" fill="#F8F5EA"/>
<path d="M395.069 220.835C390.442 225.356 387.089 231.018 385.349 237.25C381.675 249.217 368.096 255.338 339.726 255.338C311.357 255.338 297.687 249.217 294.012 237.25C292.267 231.016 288.908 225.353 284.273 220.835C275.656 213.887 284.273 210.265 284.273 210.265C289.786 205.817 294.012 196.902 294.012 196.902C304.301 174.843 319.037 177.435 319.037 177.435C324.053 177.986 339.616 179.935 339.616 179.935C339.616 179.935 355.197 177.986 360.195 177.435C360.195 177.435 374.895 174.935 385.239 196.902C385.239 196.902 389.41 205.817 394.959 210.265C395.069 210.265 403.65 213.887 395.069 220.835Z" fill="#F39200"/>
<path d="M293.92 149.76C294.341 143.378 291.349 137.985 287.238 137.714C283.127 137.443 279.453 142.397 279.033 148.779C278.612 155.161 281.604 160.554 285.715 160.825C289.827 161.096 293.5 156.142 293.92 149.76Z" fill="#1D1D1B"/>
<path d="M406.821 154.488C407.241 148.106 404.249 142.713 400.138 142.442C396.027 142.171 392.354 147.124 391.933 153.506C391.513 159.888 394.505 165.282 398.616 165.553C402.727 165.824 406.401 160.87 406.821 154.488Z" fill="#1D1D1B"/>
<path d="M324.418 198.512C326.471 197.87 327.429 195.087 326.558 192.297C325.686 189.506 323.315 187.764 321.262 188.406C319.208 189.047 318.25 191.83 319.121 194.621C319.993 197.412 322.364 199.154 324.418 198.512Z" fill="#F9B233"/>
<path d="M356.209 194.895C357.309 192.186 356.585 189.333 354.592 188.523C352.599 187.713 350.092 189.252 348.992 191.961C347.892 194.67 348.616 197.523 350.609 198.333C352.602 199.143 355.109 197.603 356.209 194.895Z" fill="#F9B233"/>
<path d="M386.93 199.99C386.93 199.99 391.633 207.784 394.555 209.861C397.476 211.938 402.456 214.199 394.555 221.276C394.555 221.276 387.334 228.243 385.478 236.735C383.622 245.228 375.703 250.614 362.455 253.482C362.455 253.482 334.618 258.426 310.622 251.882C310.548 251.882 378.092 255.724 386.93 199.99Z" fill="#F9B233"/>
<path d="M107 138.594C127.212 141.645 147.901 144.458 168.351 144.108C178.732 144.003 189.089 143.093 199.33 141.388C204.842 140.432 211.273 140.046 216.418 137.16C229.28 129.936 220.442 106.37 213.037 98.0796C200.726 84.2747 183.767 78.3556 166.22 74.4954C133.575 67.042 100.403 62.1255 66.9998 59.7898C51.8228 58.8891 37.0317 60.9846 23.7472 68.8705C16.8569 72.9881 12.7227 78.9439 9.04791 85.9291C7.2105 89.6055 4.1604 93.7966 4.98724 98.1531C6.27342 105.102 13.1086 108.41 18.6576 111.517C25.9124 115.617 33.4388 119.216 41.1842 122.289C60.2565 129.77 80.3761 134.145 100.514 137.583C102.682 137.95 104.759 138.281 107 138.594Z" fill="#F5B6D3"/>
<mask id="mask0_27_1646" style="mask-type:luminance" maskUnits="userSpaceOnUse" x="4" y="59" width="219" height="86">
<path d="M107 138.594C127.212 141.645 147.901 144.458 168.351 144.108C178.732 144.003 189.089 143.093 199.33 141.388C204.842 140.432 211.273 140.046 216.418 137.16C229.28 129.936 220.442 106.37 213.037 98.0796C200.726 84.2747 183.767 78.3556 166.22 74.4954C133.575 67.042 100.403 62.1255 66.9998 59.7898C51.8228 58.8891 37.0317 60.9846 23.7472 68.8705C16.8569 72.9881 12.7227 78.9439 9.04791 85.9291C7.2105 89.6055 4.1604 93.7966 4.98724 98.1531C6.27342 105.102 13.1086 108.41 18.6576 111.517C25.9124 115.617 33.4388 119.216 41.1842 122.289C60.2565 129.77 80.3761 134.145 100.514 137.583C102.682 137.95 104.759 138.281 107 138.594Z" fill="white"/>
</mask>
<g mask="url(#mask0_27_1646)">
<path d="M236.732 99.9115C240.3 76.7437 191.053 49.9245 126.735 40.0092C62.4163 30.0939 7.38319 40.8372 3.81473 64.005C0.246264 87.1728 49.4937 113.992 113.812 123.907C178.13 133.823 233.163 123.079 236.732 99.9115Z" fill="#F5B6D3"/>
</g>
<path d="M126.918 98.7597C136.619 99.6053 146.615 99.8075 156.445 99.9178C163.096 99.9178 171.144 99.4583 174.378 92.565C179.688 81.2968 176.509 65.6904 176.638 53.5583C176.638 45.5804 175.297 37.1431 170.538 30.5439C165.779 23.9448 158.301 21.6286 151.19 18.7059C135.701 12.3273 118.153 11.0957 101.598 12.5479C96.0587 12.7052 90.6765 14.4257 86.0721 17.511C79.5493 22.419 75.6356 30.0108 73.3205 37.7313C69.811 49.3304 62.0755 63.264 63.7476 75.5983C64.703 82.7306 71.5566 85.7636 77.6568 87.6937C93.7341 92.6753 110.087 97.2892 126.918 98.7597Z" fill="#F5B6D3"/>
<path d="M62.7186 59.1648C63.5281 58.8814 64.3784 58.7324 65.2359 58.7236C65.2359 58.7236 64.9603 60.0103 64.8317 61.0949C67.2053 62.7322 69.7497 64.1067 72.4202 65.1941C96.7658 74.4954 123.5 78.76 149.463 80.01C158.027 80.4813 166.616 80.0067 175.076 78.5946C175.903 78.4292 176.73 78.227 177.52 78.0064C180.974 76.8299 184.006 76.8299 185.347 80.5247C186.265 83.6252 186.379 86.9084 185.678 90.065C184.833 95.3774 182.003 98.484 176.803 99.256C167.5 100.566 158.093 100.991 148.709 100.524C126.485 99.5001 104.436 96.0734 82.9485 90.304C76.1573 88.5042 69.4814 86.2943 62.9575 83.6864C57.4453 81.4071 54.6157 77.6939 55.2771 71.4991C55.7493 67.9082 57.1559 64.5042 59.3562 61.628C60.2984 60.5872 61.4424 59.7491 62.7186 59.1648Z" fill="#B2266C"/>
<path d="M412.139 310.521C413.015 307.579 413.587 304.554 413.848 301.495C414.013 298.885 413.848 295.668 411.735 294.529C410.413 293.925 408.944 293.721 407.509 293.94C397.301 294.968 387.426 298.144 378.533 303.26C367.777 309.356 357.956 316.971 349.373 325.87C348.076 327.069 347.181 328.64 346.81 330.367C346.438 332.094 346.608 333.894 347.297 335.521C348.495 338.096 350.352 340.309 352.68 341.936C360.838 348.509 370.086 353.598 380.003 356.973C384.841 358.582 389.836 359.679 394.904 360.245C399.424 360.759 404.973 362.083 408.942 358.517C416.99 351.421 412.249 338.094 410.559 328.609C409.72 322.538 410.26 316.355 412.139 310.521Z" fill="#3B3D3F"/>
<g style="mix-blend-mode:multiply">
<path d="M406.939 318.205C406.017 320.008 405.538 322.006 405.543 324.032C405.746 325.653 406.483 327.16 407.637 328.315C408.798 329.529 409.884 330.812 410.889 332.157C411.091 332.432 411.275 332.745 411.459 333.039C411.128 331.513 410.816 330.043 410.559 328.646C409.715 322.562 410.255 316.367 412.139 310.521C412.488 309.234 412.819 307.929 413.094 306.624C413.002 306.863 412.892 307.12 412.782 307.359C411.073 311.183 408.629 314.345 406.939 318.205Z" fill="#6E6F72"/>
</g>
<g style="mix-blend-mode:multiply">
<path d="M405.23 355.428C403.689 355.539 402.141 355.539 400.6 355.428C398.786 355.367 396.977 355.214 395.18 354.969C387.144 353.554 379.389 350.854 372.212 346.973C368.218 345.126 364.414 342.891 360.857 340.3C360.058 339.692 359.308 339.022 358.615 338.296C358.065 337.753 357.655 337.084 357.421 336.348C357.316 336.033 357.299 335.697 357.37 335.373C357.441 335.049 357.598 334.751 357.825 334.51C358.13 334.203 358.492 333.96 358.891 333.793C359.516 333.497 360.187 333.311 360.875 333.241C363.925 332.892 366.902 334.013 369.915 334.289C371.753 334.454 373.682 334.528 375.556 334.565C376.994 334.648 378.436 334.648 379.874 334.565C378.669 334.157 377.442 333.82 376.199 333.554C374.637 333.186 373.076 332.874 371.532 332.451C370.43 332.157 369.346 331.955 368.225 331.771C367.083 331.633 365.957 331.387 364.862 331.035C363.825 330.74 362.894 330.153 362.18 329.344C362.147 329.275 362.13 329.2 362.13 329.124C362.13 329.047 362.147 328.972 362.18 328.903C363.379 326.684 365.224 324.882 367.471 323.738C369.524 322.559 371.676 321.563 373.902 320.76C375.997 319.969 378.073 319.124 380.186 318.444C385.79 316.606 391.633 315.925 397.09 313.297C394.618 312.589 392.019 312.444 389.484 312.874C384.136 313.856 378.92 315.453 373.939 317.635C370.796 318.818 367.727 320.193 364.752 321.752C364.036 322.121 363.342 322.532 362.676 322.984C362.106 323.407 361.537 323.866 360.967 324.308C359.979 325.197 358.786 325.829 357.494 326.146C357.292 326.146 357.145 325.815 357.255 325.594C359.168 321.842 361.647 318.408 364.605 315.411C367.192 312.776 369.954 310.319 372.873 308.058C375.629 305.87 378.386 303.738 381.252 301.753L378.477 303.205C367.722 309.301 357.901 316.916 349.318 325.815C348.019 327.025 347.127 328.608 346.765 330.346C346.403 332.085 346.589 333.892 347.297 335.521C348.495 338.096 350.352 340.309 352.68 341.936C360.838 348.509 370.086 353.598 380.003 356.972C384.841 358.582 389.836 359.679 394.904 360.245C399.424 360.759 404.973 362.083 408.942 358.517C410.679 356.934 411.95 354.906 412.617 352.653C410.46 354.247 407.902 355.208 405.23 355.428Z" fill="#6E6F72"/>
</g>
<path d="M274.627 328.646C272.937 338.131 268.196 351.458 276.244 358.553C280.213 362.064 285.762 360.796 290.282 360.281C295.35 359.716 300.344 358.619 305.183 357.009C315.132 353.645 324.412 348.555 332.597 341.973C334.926 340.346 336.783 338.133 337.981 335.557C338.687 333.933 338.873 332.13 338.515 330.396C338.156 328.662 337.27 327.081 335.978 325.87C327.403 316.961 317.581 309.345 306.819 303.26C297.909 298.134 288.014 294.958 277.787 293.94C276.346 293.72 274.871 293.925 273.543 294.529C271.448 295.668 271.283 298.885 271.43 301.495C271.69 304.554 272.263 307.579 273.139 310.521C275.004 316.371 275.513 322.569 274.627 328.646Z" fill="#3B3D3F"/>
<g style="mix-blend-mode:multiply">
<path d="M278.247 318.205C279.169 320.008 279.647 322.006 279.643 324.032C279.44 325.653 278.703 327.16 277.549 328.315C276.388 329.529 275.302 330.812 274.296 332.157L273.727 333.039C274.057 331.513 274.37 330.043 274.627 328.646C275.483 322.563 274.943 316.364 273.047 310.521C272.698 309.234 272.367 307.929 272.091 306.624C272.183 306.863 272.294 307.12 272.404 307.359C274.113 311.183 276.556 314.345 278.247 318.205Z" fill="#6E6F72"/>
</g>
<g style="mix-blend-mode:multiply">
<path d="M279.974 355.428C281.509 355.539 283.051 355.539 284.586 355.428C286.399 355.367 288.208 355.214 290.006 354.969C298.042 353.557 305.798 350.857 312.974 346.973C316.968 345.126 320.771 342.891 324.329 340.3C325.132 339.697 325.882 339.027 326.571 338.296C327.12 337.753 327.53 337.084 327.765 336.348C327.869 336.033 327.887 335.697 327.816 335.373C327.745 335.049 327.587 334.751 327.361 334.51C327.056 334.203 326.694 333.96 326.295 333.793C325.672 333.492 325 333.306 324.311 333.241C321.279 332.892 318.284 334.013 315.271 334.289C313.433 334.454 311.596 334.528 309.63 334.565C308.192 334.647 306.75 334.647 305.312 334.565C306.516 334.157 307.743 333.82 308.987 333.554C310.548 333.186 312.11 332.874 313.654 332.451C314.756 332.157 315.84 331.955 316.961 331.771C318.103 331.633 319.229 331.387 320.324 331.035C321.361 330.74 322.292 330.153 323.006 329.344C323.047 329.278 323.068 329.202 323.068 329.124C323.068 329.046 323.047 328.969 323.006 328.903C321.814 326.685 319.974 324.883 317.733 323.738C315.674 322.559 313.516 321.563 311.283 320.76C309.207 319.969 307.113 319.124 304.999 318.444C299.395 316.606 293.552 315.925 288.114 313.297C290.579 312.588 293.173 312.443 295.702 312.874C301.055 313.858 306.277 315.456 311.265 317.635C314.409 318.818 317.477 320.193 320.452 321.752C321.168 322.121 321.862 322.532 322.528 322.984C323.098 323.407 323.668 323.866 324.237 324.308C325.226 325.197 326.419 325.829 327.71 326.146C327.912 326.146 328.059 325.815 327.949 325.594C326.036 321.842 323.557 318.408 320.599 315.411C318.018 312.776 315.262 310.319 312.349 308.058C309.593 305.87 306.837 303.738 303.952 301.753L306.727 303.205C317.489 309.29 327.311 316.906 335.886 325.815C337.178 327.026 338.064 328.607 338.423 330.341C338.781 332.075 338.595 333.878 337.889 335.502C336.691 338.078 334.834 340.291 332.506 341.918C324.348 348.49 315.1 353.58 305.183 356.954C300.344 358.564 295.35 359.66 290.282 360.226C285.762 360.741 280.213 362.064 276.244 358.498C274.496 356.925 273.223 354.894 272.569 352.634C274.726 354.243 277.292 355.212 279.974 355.428Z" fill="#6E6F72"/>
</g>
<path d="M354.316 322.764C352.902 321.774 351.268 321.143 349.557 320.925C344.963 320.034 340.241 320.034 335.647 320.925C333.93 321.143 332.291 321.774 330.87 322.764C328.482 324.602 328.886 328.572 329.033 331.274C329.102 333.095 329.348 334.905 329.768 336.679C330.889 340.594 333.534 342.193 337.356 342.965C339.224 343.235 341.118 343.285 342.997 343.112C344.591 343.201 346.189 343.152 347.774 342.965C351.578 342.193 354.224 340.594 355.345 336.679C355.782 334.909 356.028 333.097 356.079 331.274C356.3 328.572 356.704 324.657 354.316 322.764Z" fill="#3B3D3F"/>
<path d="M354.316 322.764C352.902 321.774 351.268 321.143 349.557 320.925C344.963 320.034 340.241 320.034 335.647 320.925C333.93 321.143 332.291 321.774 330.87 322.764C328.482 324.602 328.886 328.572 329.033 331.274C329.102 333.095 329.348 334.905 329.768 336.679C330.889 340.594 333.534 342.193 337.356 342.965C339.224 343.235 341.118 343.285 342.997 343.112C344.591 343.201 346.189 343.152 347.774 342.965C351.578 342.193 354.224 340.594 355.345 336.679C355.782 334.909 356.028 333.097 356.079 331.274C356.3 328.572 356.704 324.657 354.316 322.764Z" fill="#3B3D3F"/>
<g style="mix-blend-mode:multiply">
<path d="M354.316 322.764C352.902 321.774 351.268 321.143 349.557 320.925C344.963 320.034 340.241 320.034 335.647 320.925C333.93 321.143 332.291 321.774 330.87 322.764C328.482 324.602 328.886 328.572 329.033 331.274C329.102 333.095 329.348 334.905 329.768 336.679C330.889 340.594 333.534 342.193 337.356 342.965C339.224 343.235 341.118 343.285 342.997 343.112C344.591 343.201 346.189 343.152 347.774 342.965C351.578 342.193 354.224 340.594 355.345 336.679C355.782 334.909 356.028 333.097 356.079 331.274C356.3 328.572 356.704 324.657 354.316 322.764ZM352.938 328.793C352.883 329.765 352.691 330.724 352.368 331.642C351.523 333.701 349.502 334.528 346.58 334.951C345.356 335.025 344.129 335.025 342.905 334.951C341.468 335.07 340.024 335.07 338.587 334.951C335.684 334.528 333.663 333.701 332.799 331.642C332.485 330.722 332.293 329.764 332.23 328.793C332.101 327.359 331.789 325.3 333.626 324.308C334.787 323.781 336.031 323.464 337.301 323.37C340.825 322.892 344.397 322.892 347.921 323.37C349.192 323.463 350.436 323.781 351.596 324.308C353.378 325.3 353.066 327.359 352.938 328.793Z" fill="#6E6F72"/>
</g>
</g>
<defs>
<clipPath id="clip0_27_1646">
<rect width="450" height="459" fill="white"/>
</clipPath>
</defs>
</svg>
