<svg xmlns="http://www.w3.org/2000/svg" viewBox="0 0 174.71 50.96"><defs><style>.cls-1{fill:#f8f5ea;}.cls-2{fill:#f39200;}.cls-3{fill:#1d1d1b;}.cls-4,.cls-5{fill:#c67114;}.cls-5{opacity:0.68;}</style></defs><g id="Capa_2" data-name="Capa 2"><g id="Capa_1-2" data-name="Capa 1"><path class="cls-1" d="M11,0A18.38,18.38,0,0,1,23.33,4.2a13.2,13.2,0,0,1,3.76,5.62,14.36,14.36,0,0,1,.84,4.6V15A13,13,0,0,1,25.67,22v0A19.86,19.86,0,0,1,28.54,25a15.29,15.29,0,0,1,2.58,8.1v1a12.91,12.91,0,0,1-2.75,7.59,16.18,16.18,0,0,1-4.23,3.76,23.13,23.13,0,0,1-4.4,2.16,29.55,29.55,0,0,1-9.45,1.7q-6.19,0-8.12-3.9a11.74,11.74,0,0,1-1-3.93A193,193,0,0,1,0,17.81q0-11,1.29-13.54a6.52,6.52,0,0,1,2.94-3A17.48,17.48,0,0,1,11,0Zm-.17,10.63q-.2,3.22-.2,8v.24s.07,0,.07,0c4.4-1.11,6.6-2.49,6.6-4.16,0-2.13-1.37-3.41-4.13-3.86A12.61,12.61,0,0,0,10.83,10.63Zm.11,19v0q0,2.06.57,8.94h0a16.67,16.67,0,0,0,5.82-1.49c2.08-1,3.11-2.16,3.11-3.36v-.2a3.68,3.68,0,0,0-3.35-3.93,15.12,15.12,0,0,0-2.94-.3A23.26,23.26,0,0,0,10.94,29.59Z"/><path class="cls-1" d="M89.59,12h1.25a12.82,12.82,0,0,1,7.76,3q3.18,2.59,3.18,5.18v.37q0,2.94-3.15,4.71a5.84,5.84,0,0,1-2,.4h-.34a6,6,0,0,1-4.47-2.4,2.75,2.75,0,0,0-1.69-.58A2.45,2.45,0,0,0,88,24a14.16,14.16,0,0,0-1.79,4,54.56,54.56,0,0,0-1.83,14.7c0,.83.07,1.38.07,1.66a5.46,5.46,0,0,1-1.25,3,5.28,5.28,0,0,1-3.9,1.9H79q-2.94,0-4.71-3.15-.54-.91-.54-5.76Q73,18.76,73,17.1A5.3,5.3,0,0,1,75.34,13a5.19,5.19,0,0,1,2.88-.95h.23a5.31,5.31,0,0,1,4.23,2.27A12.16,12.16,0,0,1,89.59,12Z"/><path class="cls-1" d="M121.28,11.75h1.49a12.57,12.57,0,0,1,6.47,2.13,14.47,14.47,0,0,1,2.95,2.61,20.63,20.63,0,0,1,3.62,6.06q3.31,8.26,3.32,20.69,0,3.82-2.78,5.31a4.41,4.41,0,0,1-2.44.72h-.3q-2.94,0-4.71-3.15a6,6,0,0,1-.44-1.93c0-.45,0-.86,0-1.22a51.07,51.07,0,0,0-2.2-15.54q-1.83-5.05-4.34-5.05h0A2.54,2.54,0,0,0,119.66,24,14.14,14.14,0,0,0,118,28a55.1,55.1,0,0,0-1.76,14.76v1.15c0,2-1,3.53-3.12,4.71a6.14,6.14,0,0,1-2,.4h-.34a5.3,5.3,0,0,1-4.63-3,9.09,9.09,0,0,1-.58-4.07q-.71-22.82-.71-25.05a5.2,5.2,0,0,1,2.47-4.2,4.91,4.91,0,0,1,2.71-.85h.27a5.42,5.42,0,0,1,4.2,2.2h.1A11.49,11.49,0,0,1,121.28,11.75Z"/><path class="cls-1" d="M147.84,45.73h.28a2.63,2.63,0,0,1,2.2,1.37,2.68,2.68,0,0,1,.3,1.09v.15h0l0,0v.1a2.47,2.47,0,0,1-1.2,2A2.79,2.79,0,0,1,148,51h-.12a2.62,2.62,0,0,1-2.32-1.44,2.67,2.67,0,0,1-.24-1v-.22a2.63,2.63,0,0,1,1.27-2.16A2.58,2.58,0,0,1,147.84,45.73Z"/><path class="cls-1" d="M154.67,29.42a2.4,2.4,0,0,1,2.1,1.33,2.85,2.85,0,0,1,.24,1.11V48.55a2.36,2.36,0,0,1-1.4,2.19,2.3,2.3,0,0,1-3-1,2.44,2.44,0,0,1-.32-1.22V31.82a2.35,2.35,0,0,1,1.49-2.22A2.47,2.47,0,0,1,154.67,29.42Z"/><path class="cls-1" d="M167.34,33.58a14.84,14.84,0,0,1,5.29,1.07A2.38,2.38,0,0,1,174,36.83v.23a2.94,2.94,0,0,1,.6,2.07,5.87,5.87,0,0,1,0,1c0,.64,0,1.29,0,1.95q.12,5.64.12,6.39a2.37,2.37,0,0,1-1,1.85,2.36,2.36,0,0,1-3.18-.38h0A9.15,9.15,0,0,1,166.44,51H166a7.05,7.05,0,0,1-4.33-1.5A8,8,0,0,1,159,43c0-3.18.9-5.66,2.7-7.41A8.11,8.11,0,0,1,167.34,33.58ZM163.72,43c0,1.58.42,2.59,1.26,3a2.74,2.74,0,0,0,1.24.26h0a4.11,4.11,0,0,0,2.62-.89,2.94,2.94,0,0,0,.5-.9,9.69,9.69,0,0,0,.5-2.87q0-.62,0-2.94a9.61,9.61,0,0,0-2.53-.37A3,3,0,0,0,164.26,40,7.94,7.94,0,0,0,163.72,43Z"/><path class="cls-2" d="M66.07,37.63a10.62,10.62,0,0,0-2.79,4.72c-1,3.43-5,5.19-13.12,5.19s-12.07-1.76-13.11-5.19a10.58,10.58,0,0,0-2.8-4.72c-2.48-2,0-3,0-3a12.74,12.74,0,0,0,2.8-3.84c3-6.31,7.2-5.6,7.2-5.6,1.44.16,5.91.73,5.91.73s4.48-.57,5.92-.73c0,0,4.24-.71,7.2,5.6a12.82,12.82,0,0,0,2.79,3.84S68.55,35.63,66.07,37.63Z"/><ellipse class="cls-3" cx="34.87" cy="17.06" rx="3.33" ry="2.15" transform="translate(15.55 50.73) rotate(-86.23)"/><ellipse class="cls-3" cx="67.33" cy="18.42" rx="3.33" ry="2.15" transform="translate(44.52 84.4) rotate(-86.23)"/><ellipse class="cls-4" cx="45.32" cy="29.75" rx="1.12" ry="1.52" transform="translate(-6.81 14.87) rotate(-17.35)"/><ellipse class="cls-4" cx="53.88" cy="29.75" rx="1.52" ry="1.12" transform="translate(6.03 68.47) rotate(-67.89)"/><path class="cls-5" d="M63.75,31.64a13.8,13.8,0,0,0,2.19,2.84c.84.6,2.27,1.24,0,3.27a10.24,10.24,0,0,0-2.61,4.45c-.54,2.44-2.82,4-6.62,4.81,0,0-8,1.42-14.9-.46C41.81,46.55,61.21,47.65,63.75,31.64Z"/></g></g></svg>