<svg xmlns="http://www.w3.org/2000/svg" xmlns:xlink="http://www.w3.org/1999/xlink" viewBox="0 0 244.91 249.7"><defs><style>.cls-1{mask:url(#mask);}.cls-13,.cls-2{mix-blend-mode:multiply;}.cls-2{fill:url(#radial-gradient);}.cls-3{fill:#f5b6d3;}.cls-4{isolation:isolate;}.cls-5{fill:#f8f5ea;}.cls-6{fill:#f39200;}.cls-7{fill:#1d1d1b;}.cls-8{fill:#f9b233;}.cls-9{clip-path:url(#clip-path);}.cls-10{mask:url(#mask-2);}.cls-11{fill:#b2266c;}.cls-12{fill:#3b3d3f;}.cls-13{fill:#6e6f72;}.cls-14{filter:url(#luminosity-noclip);}</style><filter id="luminosity-noclip" x="1.97" y="-8658.2" width="126.97" height="32766" filterUnits="userSpaceOnUse" color-interpolation-filters="sRGB"><feFlood flood-color="#fff" result="bg"/><feBlend in="SourceGraphic" in2="bg"/></filter><mask id="mask" x="1.97" y="-8658.2" width="126.97" height="32766" maskUnits="userSpaceOnUse"><g class="cls-14"/></mask><radialGradient id="radial-gradient" cx="-4.95" cy="-230.15" r="45.51" gradientTransform="matrix(0, 1.41, -0.51, 0, -51.3, 45.05)" gradientUnits="userSpaceOnUse"><stop offset="0.52" stop-color="#808181"/><stop offset="0.57" stop-color="#757575"/><stop offset="0.73" stop-color="#595858"/><stop offset="0.82" stop-color="#4e4d4d"/><stop offset="0.92" stop-color="#242323"/><stop offset="1" stop-color="#010101"/></radialGradient><clipPath id="clip-path"><path class="cls-3" d="M58.22,68.87c11,1.66,22.26,3.19,33.39,3a109.45,109.45,0,0,0,16.86-1.48c3-.52,6.5-.73,9.3-2.3,7-3.93,2.19-16.75-1.84-21.26-6.7-7.51-15.93-10.73-25.48-12.83a353.47,353.47,0,0,0-54-8c-8.26-.49-16.31.65-23.54,4.94-3.75,2.24-6,5.48-8,9.28-1,2-2.66,4.28-2.21,6.65.7,3.78,4.42,5.58,7.44,7.27A99.53,99.53,0,0,0,22.4,60c10.38,4.07,21.33,6.45,32.29,8.32C55.87,68.52,57,68.7,58.22,68.87Z"/></clipPath><mask id="mask-2" x="1.97" y="13.24" width="126.97" height="49.66" maskUnits="userSpaceOnUse"><g class="cls-1"><ellipse class="cls-2" cx="65.45" cy="38.06" rx="23.09" ry="64.13" transform="translate(17.86 96.95) rotate(-81.24)"/></g></mask></defs><g class="cls-4"><g id="Capa_2" data-name="Capa 2"><g id="Capa_1-2" data-name="Capa 1"><path class="cls-5" d="M62.53,249l-40.09.7C22.8,231.49,36.91,196,34.74,173s-24.33-40.83-24.33-40.83C-7.39,112.59,3,88.27,3,88.27c7.38-13.47,7.82-23.46,7.82-23.46,5.21-31.27,44.73-28.67,44.73-28.67v.06c7.29-.65,38.59-1.82,45.27,25.33,0,0,1.2,9.93,9.59,22.79,0,0,12.24,23.46-4,44.31,0,0-20.72,19.44-21.13,42.56s14.58,59.8,16.33,77.93H63.37"/><path class="cls-6" d="M86.24,119.53a19.16,19.16,0,0,0-5.06,8.55c-1.89,6.22-9,9.41-23.75,9.41s-21.86-3.19-23.74-9.41a19.23,19.23,0,0,0-5.07-8.55c-4.49-3.61,0-5.5,0-5.5,2.9-2.31,5.07-6.94,5.07-6.94,5.36-11.44,13-10.14,13-10.14,2.61.29,10.71,1.31,10.71,1.31s8.11-1,10.71-1.31c0,0,7.68-1.3,13,10.14,0,0,2.17,4.63,5.06,6.94C86.24,114,90.73,115.92,86.24,119.53Z"/><ellipse class="cls-7" cx="29.74" cy="82.3" rx="6.02" ry="3.89" transform="translate(-54.34 106.56) rotate(-86.23)"/><ellipse class="cls-7" cx="88.51" cy="84.76" rx="6.02" ry="3.89" transform="matrix(0.07, -1, 1, 0.07, -1.89, 167.51)"/><ellipse class="cls-8" cx="48.66" cy="105.27" rx="2.03" ry="2.75" transform="matrix(0.95, -0.3, 0.3, 0.95, -29.19, 19.31)"/><ellipse class="cls-8" cx="64.15" cy="105.27" rx="2.75" ry="2.03" transform="translate(-57.53 125.08) rotate(-67.89)"/><path class="cls-8" d="M82,108.69s2.45,4,4,5.14,4.11,2.25,0,5.93c0,0-3.76,3.63-4.73,8s-5.09,7.22-12,8.71c0,0-14.49,2.58-27-.83C42.3,135.69,77.42,137.69,82,108.69Z"/><path class="cls-5" d="M190.19,249l-41.91.74c.38-19,15.12-56.17,12.85-80.23s-25.43-42.69-25.43-42.69C117.09,106.34,128,80.92,128,80.92c7.71-14.08,8.17-24.52,8.17-24.52,5.45-32.7,46.77-30,46.77-30v.06c7.62-.68,40.34-1.9,47.33,26.49,0,0,1.25,10.38,10,23.82,0,0,12.81,24.53-4.2,46.33,0,0-21.67,20.33-22.1,44.5s15.25,62.52,17.08,81.48h-40"/><path class="cls-6" d="M215,113.61a20,20,0,0,0-5.29,8.93c-2,6.51-9.39,9.84-24.83,9.84S162,129.05,160,122.54a20,20,0,0,0-5.3-8.93c-4.69-3.78,0-5.75,0-5.75,3-2.42,5.3-7.27,5.3-7.27,5.6-12,13.62-10.59,13.62-10.59,2.73.3,11.2,1.36,11.2,1.36s8.48-1.06,11.2-1.36c0,0,8-1.36,13.63,10.59,0,0,2.27,4.85,5.29,7.27C215,107.86,219.67,109.83,215,113.61Z"/><ellipse class="cls-7" cx="155.9" cy="74.68" rx="6.3" ry="4.06" transform="translate(71.13 225.33) rotate(-86.23)"/><ellipse class="cls-7" cx="217.36" cy="77.25" rx="6.3" ry="4.06" transform="translate(125.97 289.06) rotate(-86.23)"/><ellipse class="cls-8" cx="175.69" cy="98.7" rx="2.12" ry="2.88" transform="translate(-21.44 56.9) rotate(-17.35)"/><ellipse class="cls-8" cx="191.89" cy="98.7" rx="2.88" ry="2.12" transform="translate(28.22 239.33) rotate(-67.89)"/><path class="cls-8" d="M210.57,102.27s2.56,4.24,4.15,5.37,4.3,2.36,0,6.21c0,0-3.93,3.79-4.94,8.41s-5.32,7.55-12.53,9.11c0,0-15.15,2.69-28.21-.87C169,130.5,205.76,132.59,210.57,102.27Z"/><path class="cls-3" d="M58.22,68.87c11,1.66,22.26,3.19,33.39,3a109.45,109.45,0,0,0,16.86-1.48c3-.52,6.5-.73,9.3-2.3,7-3.93,2.19-16.75-1.84-21.26-6.7-7.51-15.93-10.73-25.48-12.83a353.47,353.47,0,0,0-54-8c-8.26-.49-16.31.65-23.54,4.94-3.75,2.24-6,5.48-8,9.28-1,2-2.66,4.28-2.21,6.65.7,3.78,4.42,5.58,7.44,7.27A99.53,99.53,0,0,0,22.4,60c10.38,4.07,21.33,6.45,32.29,8.32C55.87,68.52,57,68.7,58.22,68.87Z"/><g class="cls-9"><g class="cls-10"><ellipse class="cls-3" cx="65.45" cy="38.06" rx="23.09" ry="64.13" transform="translate(17.86 96.95) rotate(-81.24)"/></g></g><path class="cls-3" d="M69.06,47.2c5.28.46,10.72.57,16.07.63,3.62,0,8-.25,9.76-4,2.89-6.13,1.16-14.62,1.23-21.22,0-4.34-.73-8.93-3.32-12.52S86.14,5.24,82.27,3.65C73.84.18,64.29-.49,55.28.3A16,16,0,0,0,46.83,3C43.28,5.67,41.15,9.8,39.89,14c-1.91,6.31-6.12,13.89-5.21,20.6.52,3.88,4.25,5.53,7.57,6.58C51,43.89,59.9,46.4,69.06,47.2Z"/><path class="cls-11" d="M34.12,25.66a4.28,4.28,0,0,1,1.37-.24s-.15.7-.22,1.29a21.66,21.66,0,0,0,4.13,2.23C52.65,34,67.2,36.32,81.33,37a63.51,63.51,0,0,0,13.94-.77c.45-.09.9-.2,1.33-.32,1.88-.64,3.53-.64,4.26,1.37a10.36,10.36,0,0,1,.18,5.19c-.46,2.89-2,4.58-4.83,5a80.88,80.88,0,0,1-15.29.69,167.88,167.88,0,0,1-35.79-5.56A94.63,94.63,0,0,1,34.25,39c-3-1.24-4.54-3.26-4.18-6.63A11.25,11.25,0,0,1,32.29,27,5.63,5.63,0,0,1,34.12,25.66Z"/><path class="cls-12" d="M224.29,162.4a24.48,24.48,0,0,0,.93-4.91c.09-1.42,0-3.17-1.15-3.79a4.06,4.06,0,0,0-2.3-.32A39.58,39.58,0,0,0,206,158.45a70,70,0,0,0-15.87,12.3A4.67,4.67,0,0,0,189,176a8.77,8.77,0,0,0,2.93,3.49,48.72,48.72,0,0,0,14.87,8.18,39.63,39.63,0,0,0,8.11,1.78c2.46.28,5.48,1,7.64-.94,4.38-3.86,1.8-11.11.88-16.27A22.19,22.19,0,0,1,224.29,162.4Z"/><path class="cls-13" d="M221.46,166.58a6.93,6.93,0,0,0-.76,3.17,4,4,0,0,0,1.14,2.33,22.66,22.66,0,0,1,1.77,2.09c.11.15.21.32.31.48-.18-.83-.35-1.63-.49-2.39a22.19,22.19,0,0,1,.86-9.86c.19-.7.37-1.41.52-2.12-.05.13-.11.27-.17.4C223.71,162.76,222.38,164.48,221.46,166.58Z"/><path class="cls-13" d="M220.53,186.83a17.67,17.67,0,0,1-2.52,0,29.09,29.09,0,0,1-2.95-.25,41.37,41.37,0,0,1-12.5-4.35,36.59,36.59,0,0,1-6.18-3.63,10.35,10.35,0,0,1-1.22-1.09,2.6,2.6,0,0,1-.65-1.06,1,1,0,0,1,.22-1,1.8,1.8,0,0,1,.58-.39,3.3,3.3,0,0,1,1.08-.3c1.66-.19,3.28.42,4.92.57,1,.09,2.05.13,3.07.15a20.44,20.44,0,0,0,2.35,0,18,18,0,0,0-2-.55c-.85-.2-1.7-.37-2.54-.6-.6-.16-1.19-.27-1.8-.37a9.82,9.82,0,0,1-1.83-.4,3.07,3.07,0,0,1-1.46-.92.28.28,0,0,1,0-.24,6.76,6.76,0,0,1,2.88-2.81,22.09,22.09,0,0,1,3.5-1.62c1.14-.43,2.27-.89,3.42-1.26,3.05-1,6.23-1.37,9.2-2.8a9.36,9.36,0,0,0-4.14-.23,38.36,38.36,0,0,0-8.46,2.59,44.74,44.74,0,0,0-5,2.24,10.82,10.82,0,0,0-1.13.67c-.31.23-.62.48-.93.72a4.39,4.39,0,0,1-1.89,1c-.11,0-.19-.18-.13-.3a22.31,22.31,0,0,1,4-5.54,44.48,44.48,0,0,1,4.5-4c1.5-1.19,3-2.35,4.56-3.43l-1.51.79a70,70,0,0,0-15.87,12.3A4.67,4.67,0,0,0,189,176a8.77,8.77,0,0,0,2.93,3.49,48.72,48.72,0,0,0,14.87,8.18,39.63,39.63,0,0,0,8.11,1.78c2.46.28,5.48,1,7.64-.94a7,7,0,0,0,2-3.19A7.85,7.85,0,0,1,220.53,186.83Z"/><path class="cls-12" d="M149.45,172.26c-.92,5.16-3.5,12.41.88,16.27,2.16,1.91,5.18,1.22,7.64.94a39.63,39.63,0,0,0,8.11-1.78A48.72,48.72,0,0,0,181,179.51a8.77,8.77,0,0,0,2.93-3.49,4.67,4.67,0,0,0-1.09-5.27,69.52,69.52,0,0,0-15.87-12.3,39.54,39.54,0,0,0-15.8-5.07,4.09,4.09,0,0,0-2.31.32c-1.14.62-1.23,2.37-1.15,3.79a24.48,24.48,0,0,0,.93,4.91A22,22,0,0,1,149.45,172.26Z"/><path class="cls-13" d="M151.42,166.58a6.93,6.93,0,0,1,.76,3.17,4,4,0,0,1-1.14,2.33,22.66,22.66,0,0,0-1.77,2.09l-.31.48c.18-.83.35-1.63.49-2.39a22,22,0,0,0-.86-9.86c-.19-.7-.37-1.41-.52-2.12.05.13.11.27.17.4C149.17,162.76,150.5,164.48,151.42,166.58Z"/><path class="cls-13" d="M152.36,186.83a17.53,17.53,0,0,0,2.51,0,29.09,29.09,0,0,0,2.95-.25,41.28,41.28,0,0,0,12.5-4.35,36.59,36.59,0,0,0,6.18-3.63,9.61,9.61,0,0,0,1.22-1.09,2.6,2.6,0,0,0,.65-1.06,1,1,0,0,0-.22-1,1.8,1.8,0,0,0-.58-.39,3.17,3.17,0,0,0-1.08-.3c-1.65-.19-3.28.42-4.92.57-1,.09-2,.13-3.07.15a20.48,20.48,0,0,1-2.35,0,18,18,0,0,1,2-.55c.85-.2,1.7-.37,2.54-.6.6-.16,1.19-.27,1.8-.37a9.82,9.82,0,0,0,1.83-.4,3.07,3.07,0,0,0,1.46-.92.23.23,0,0,0,0-.24,6.74,6.74,0,0,0-2.87-2.81,22.19,22.19,0,0,0-3.51-1.62c-1.13-.43-2.27-.89-3.42-1.26-3.05-1-6.23-1.37-9.19-2.8a9.3,9.3,0,0,1,4.13-.23,38.61,38.61,0,0,1,8.47,2.59,44.59,44.59,0,0,1,5,2.24,10.82,10.82,0,0,1,1.13.67c.31.23.62.48.93.72a4.39,4.39,0,0,0,1.89,1c.11,0,.19-.18.13-.3a22.31,22.31,0,0,0-4-5.54,44.39,44.39,0,0,0-4.49-4c-1.5-1.19-3-2.35-4.57-3.43l1.51.79a69.52,69.52,0,0,1,15.87,12.3,4.67,4.67,0,0,1,1.09,5.27,8.77,8.77,0,0,1-2.93,3.49,48.72,48.72,0,0,1-14.87,8.18,39.63,39.63,0,0,1-8.11,1.78c-2.46.28-5.48,1-7.64-.94a6.85,6.85,0,0,1-2-3.19A7.79,7.79,0,0,0,152.36,186.83Z"/><path class="cls-12" d="M192.82,169.06a5.79,5.79,0,0,0-2.59-1,19.87,19.87,0,0,0-7.57,0,5.83,5.83,0,0,0-2.6,1c-1.3,1-1.08,3.16-1,4.63a15.3,15.3,0,0,0,.4,2.94c.61,2.13,2.05,3,4.13,3.42a13.12,13.12,0,0,0,3.07.08,15.07,15.07,0,0,0,2.6-.08c2.07-.42,3.51-1.29,4.12-3.42a13.87,13.87,0,0,0,.4-2.94C193.9,172.22,194.12,170.09,192.82,169.06Z"/><path class="cls-12" d="M192.82,169.06a5.79,5.79,0,0,0-2.59-1,19.87,19.87,0,0,0-7.57,0,5.83,5.83,0,0,0-2.6,1c-1.3,1-1.08,3.16-1,4.63a15.3,15.3,0,0,0,.4,2.94c.61,2.13,2.05,3,4.13,3.42a13.12,13.12,0,0,0,3.07.08,15.07,15.07,0,0,0,2.6-.08c2.07-.42,3.51-1.29,4.12-3.42a13.87,13.87,0,0,0,.4-2.94C193.9,172.22,194.12,170.09,192.82,169.06Z"/><path class="cls-13" d="M192.82,169.06a5.79,5.79,0,0,0-2.59-1,19.87,19.87,0,0,0-7.57,0,5.83,5.83,0,0,0-2.6,1c-1.3,1-1.08,3.16-1,4.63a15.3,15.3,0,0,0,.4,2.94c.61,2.13,2.05,3,4.13,3.42a13.12,13.12,0,0,0,3.07.08,15.07,15.07,0,0,0,2.6-.08c2.07-.42,3.51-1.29,4.12-3.42a13.87,13.87,0,0,0,.4-2.94C193.9,172.22,194.12,170.09,192.82,169.06Zm-.75,3.28a5.62,5.62,0,0,1-.31,1.55c-.46,1.12-1.56,1.57-3.15,1.8a16.48,16.48,0,0,1-2,0,14.19,14.19,0,0,1-2.35,0c-1.58-.23-2.68-.68-3.15-1.8a6,6,0,0,1-.31-1.55c-.07-.78-.24-1.9.76-2.44a5.89,5.89,0,0,1,2-.51,21.51,21.51,0,0,1,5.78,0,5.88,5.88,0,0,1,2,.51C192.31,170.44,192.14,171.56,192.07,172.34Z"/></g></g></g></svg>